<svg width="51" height="51" viewBox="0 0 51 51" fill="none" xmlns="http://www.w3.org/2000/svg">
<path fill-rule="evenodd" clip-rule="evenodd" d="M39.187 17.1758C23.0046 26.9857 20.2788 28.1519 13.9092 22.3929C15.4886 27.8962 14.767 31.8984 11.8232 35.992C19.1092 33.7714 20.4384 35.8002 24.1368 38.3393C21.8603 31.1521 25.0529 28.7874 39.187 17.1758Z" stroke="#FFB23F" stroke-width="3" stroke-miterlimit="1.5" stroke-linecap="round" stroke-linejoin="round"/>
<path d="M33.1123 31.79C33.3434 32.545 33.4351 33.3466 33.5837 34.1207" stroke="#FFB23F" stroke-width="3" stroke-miterlimit="1.5" stroke-linecap="round" stroke-linejoin="round"/>
<path d="M30.0693 36.6566C30.6689 36.5647 31.2745 36.3942 31.8673 36.2559" stroke="#FFB23F" stroke-width="3" stroke-miterlimit="1.5" stroke-linecap="round" stroke-linejoin="round"/>
<path d="M34.3106 37.6729C34.3086 38.4143 34.4414 39.3729 34.6746 40.088" stroke="#FFB23F" stroke-width="3" stroke-miterlimit="1.5" stroke-linecap="round" stroke-linejoin="round"/>
<path d="M36.2236 35.5361C37.0232 35.6009 37.8655 35.2784 38.6645 35.1787" stroke="#FFB23F" stroke-width="3" stroke-miterlimit="1.5" stroke-linecap="round" stroke-linejoin="round"/>
<path d="M18.5898 10.7002C18.6763 11.547 18.8199 12.3833 18.988 13.2164" stroke="#FFB23F" stroke-width="3" stroke-miterlimit="1.5" stroke-linecap="round" stroke-linejoin="round"/>
<path d="M15.2627 15.4503C15.8964 15.3936 16.5033 15.3149 17.1274 15.2012" stroke="#FFB23F" stroke-width="3" stroke-miterlimit="1.5" stroke-linecap="round" stroke-linejoin="round"/>
<path d="M19.6582 16.7295C19.6714 17.5216 19.8292 18.3636 19.9899 19.1426" stroke="#FFB23F" stroke-width="3" stroke-miterlimit="1.5" stroke-linecap="round" stroke-linejoin="round"/>
<path d="M21.6602 14.561C22.3816 14.3811 23.049 14.1381 23.7952 14.0527" stroke="#FFB23F" stroke-width="3" stroke-miterlimit="1.5" stroke-linecap="round" stroke-linejoin="round"/>
</svg>
