<svg width="30" height="30" viewBox="0 0 30 30" fill="none" xmlns="http://www.w3.org/2000/svg">
<path d="M20.9373 4.45V2.5C20.9373 1.9875 20.5123 1.5625 19.9998 1.5625C19.4873 1.5625 19.0623 1.9875 19.0623 2.5V4.375H10.9373V2.5C10.9373 1.9875 10.5123 1.5625 9.9998 1.5625C9.4873 1.5625 9.0623 1.9875 9.0623 2.5V4.45C5.6873 4.7625 4.0498 6.775 3.7998 9.7625C3.7748 10.125 4.0748 10.425 4.4248 10.425H25.5748C25.9373 10.425 26.2373 10.1125 26.1998 9.7625C25.9498 6.775 24.3123 4.7625 20.9373 4.45Z" fill="url(#paint0_linear_1474_1959)"/>
<path d="M23.75 18.75C20.9875 18.75 18.75 20.9875 18.75 23.75C18.75 24.6875 19.0125 25.575 19.475 26.325C20.3375 27.775 21.925 28.75 23.75 28.75C25.575 28.75 27.1625 27.775 28.025 26.325C28.4875 25.575 28.75 24.6875 28.75 23.75C28.75 20.9875 26.5125 18.75 23.75 18.75ZM26.3375 23.2125L23.675 25.675C23.5 25.8375 23.2625 25.925 23.0375 25.925C22.8 25.925 22.5625 25.8375 22.375 25.65L21.1375 24.4125C20.775 24.05 20.775 23.45 21.1375 23.0875C21.5 22.725 22.1 22.725 22.4625 23.0875L23.0625 23.6875L25.0625 21.8375C25.4375 21.4875 26.0375 21.5125 26.3875 21.8875C26.7375 22.2625 26.7125 22.85 26.3375 23.2125Z" fill="url(#paint1_linear_1474_1959)"/>
<path d="M25 12.2998H5C4.3125 12.2998 3.75 12.8623 3.75 13.5498V21.2498C3.75 24.9998 5.625 27.4998 10 27.4998H16.1625C17.025 27.4998 17.625 26.6623 17.35 25.8498C17.1 25.1248 16.8875 24.3248 16.8875 23.7498C16.8875 19.9623 19.975 16.8748 23.7625 16.8748C24.125 16.8748 24.4875 16.8998 24.8375 16.9623C25.5875 17.0748 26.2625 16.4873 26.2625 15.7373V13.5623C26.25 12.8623 25.6875 12.2998 25 12.2998ZM11.5125 22.7623C11.275 22.9873 10.95 23.1248 10.625 23.1248C10.3 23.1248 9.975 22.9873 9.7375 22.7623C9.5125 22.5248 9.375 22.1998 9.375 21.8748C9.375 21.5498 9.5125 21.2248 9.7375 20.9873C9.8625 20.8748 9.9875 20.7873 10.15 20.7248C10.6125 20.5248 11.1625 20.6373 11.5125 20.9873C11.7375 21.2248 11.875 21.5498 11.875 21.8748C11.875 22.1998 11.7375 22.5248 11.5125 22.7623ZM11.5125 18.3873C11.45 18.4373 11.3875 18.4873 11.325 18.5373C11.25 18.5873 11.175 18.6248 11.1 18.6498C11.025 18.6873 10.95 18.7123 10.875 18.7248C10.7875 18.7373 10.7 18.7498 10.625 18.7498C10.3 18.7498 9.975 18.6123 9.7375 18.3873C9.5125 18.1498 9.375 17.8248 9.375 17.4998C9.375 17.1748 9.5125 16.8498 9.7375 16.6123C10.025 16.3248 10.4625 16.1873 10.875 16.2748C10.95 16.2873 11.025 16.3123 11.1 16.3498C11.175 16.3748 11.25 16.4123 11.325 16.4623C11.3875 16.5123 11.45 16.5623 11.5125 16.6123C11.7375 16.8498 11.875 17.1748 11.875 17.4998C11.875 17.8248 11.7375 18.1498 11.5125 18.3873ZM15.8875 18.3873C15.65 18.6123 15.325 18.7498 15 18.7498C14.675 18.7498 14.35 18.6123 14.1125 18.3873C13.8875 18.1498 13.75 17.8248 13.75 17.4998C13.75 17.1748 13.8875 16.8498 14.1125 16.6123C14.5875 16.1498 15.425 16.1498 15.8875 16.6123C16.1125 16.8498 16.25 17.1748 16.25 17.4998C16.25 17.8248 16.1125 18.1498 15.8875 18.3873Z" fill="url(#paint2_linear_1474_1959)"/>
<defs>
<linearGradient id="paint0_linear_1474_1959" x1="29.6043" y1="65.8977" x2="-26.0864" y2="54.743" gradientUnits="userSpaceOnUse">
<stop offset="0.25249" stop-color="#59A49E"/>
<stop offset="0.637527" stop-color="#A6D8D2"/>
</linearGradient>
<linearGradient id="paint1_linear_1474_1959" x1="30.2682" y1="91.3426" x2="4.57542" y2="89.3069" gradientUnits="userSpaceOnUse">
<stop offset="0.25249" stop-color="#59A49E"/>
<stop offset="0.637527" stop-color="#A6D8D2"/>
</linearGradient>
<linearGradient id="paint2_linear_1474_1959" x1="4.20025" y1="27.1958" x2="30.4895" y2="-8.27978" gradientUnits="userSpaceOnUse">
<stop offset="0.138287" stop-color="#FFB23F"/>
<stop offset="0.467052" stop-color="#FAD8A5"/>
</linearGradient>
</defs>
</svg>
